<?xml version="1.0" encoding="UTF-8" standalone="no"?>
<svg
   id="Artwork"
   version="1.1"
   viewBox="0 0 569.977 146.205"
   sodipodi:docname="informatica.svg"
   inkscape:version="1.2.2 (b0a84865, 2022-12-01)"
   xmlns:inkscape="http://www.inkscape.org/namespaces/inkscape"
   xmlns:sodipodi="http://sodipodi.sourceforge.net/DTD/sodipodi-0.dtd"
   xmlns="http://www.w3.org/2000/svg"
   xmlns:svg="http://www.w3.org/2000/svg">
  <sodipodi:namedview
     id="namedview88"
     pagecolor="#ffffff"
     bordercolor="#000000"
     borderopacity="0.25"
     inkscape:showpageshadow="2"
     inkscape:pageopacity="0.0"
     inkscape:pagecheckerboard="0"
     inkscape:deskcolor="#d1d1d1"
     showgrid="false"
     inkscape:zoom="0.46106786"
     inkscape:cx="-169.1725"
     inkscape:cy="-8.6755126"
     inkscape:window-width="1309"
     inkscape:window-height="456"
     inkscape:window-x="0"
     inkscape:window-y="30"
     inkscape:window-maximized="0"
     inkscape:current-layer="Artwork" />
  <!-- Generator: Adobe Illustrator 29.8.2, SVG Export Plug-In . SVG Version: 2.1.1 Build 3)  -->
  <defs
     id="defs11">
    <style
       id="style9">
      .st0 {
        fill: #e23400;
      }

      .st1 {
        fill: #373737;
      }

      .st2 {
        fill: #ff7d00;
      }

      .st3 {
        fill: #001aff;
      }

      .st4 {
        fill: #ff4d00;
      }

      .st5 {
        fill: #0d9dda;
      }
    </style>
  </defs>
  <g
     id="g85"
     style="fill:#ffffff">
    <polygon
       class="st4"
       points="66.421 84.087 107.91 107.289 109.459 89.648 97.94 77.378 80.938 74.572 66.421 84.087"
       id="polygon47"
       style="fill:#cccccc" />
    <polygon
       class="st2"
       points="73.425 3.835 107.91 107.289 142.395 72.805 73.425 3.835"
       id="polygon49"
       style="fill:#ffffff" />
    <polygon
       class="st3"
       points="67.877 58.63 66.421 84.087 119.418 72.806 67.877 58.63"
       id="polygon51"
       style="fill:#808080" />
    <polygon
       class="st0"
       points="4.457 72.807 4.457 72.807 41.282 109.632 48.138 100.446 46.907 89.41 30.006 78.443 4.457 72.807"
       id="polygon53"
       style="fill:#cccccc" />
    <polygon
       class="st4"
       points="69.695 7.572 4.457 72.807 46.907 89.41 69.695 7.572"
       id="polygon55"
       style="fill:#b3b3b3" />
    <polygon
       class="st2"
       points="46.907 89.41 41.282 109.632 73.425 141.775 103.628 111.574 46.907 89.41"
       id="polygon57"
       style="fill:#ffffff" />
    <polygon
       class="st1"
       points="188.297 92.473 181.847 92.473 181.847 40.282 188.297 36.52 188.297 92.473"
       id="polygon59"
       style="fill:#ffffff" />
    <polygon
       class="st1"
       points="476.996 45.984 470.364 45.984 470.364 40.856 470.364 39.062 476.996 39.062 476.996 45.984"
       id="polygon61"
       style="fill:#ffffff" />
    <path
       class="st1"
       d="M217.125,52.242c-5.171,0-9.275,2.196-12.22,6.534v-5.712h-6.307v39.41h6.307v-22.505c0-6.881,4.38-11.687,10.65-11.687,6.133,0,9.794,4.202,9.794,11.239v22.953h6.307v-24.371c0-4.675-1.321-8.631-3.821-11.441-2.573-2.892-6.277-4.42-10.71-4.42Z"
       id="path63"
       style="fill:#ffffff" />
    <path
       class="st1"
       d="M281.963,52.242c-5.418,0-10.426,2.174-14.101,6.121-3.59,3.854-5.566,8.984-5.566,14.443v.149c0,11.447,8.576,20.415,19.525,20.415,5.422,0,10.442-2.173,14.136-6.12,3.613-3.86,5.603-8.989,5.603-14.444v-.149c0-11.447-8.608-20.415-19.597-20.415h0ZM295.11,72.805v.149c0,8.238-5.652,14.45-13.147,14.45-7.412,0-13.219-6.413-13.219-14.599v-.149c0-8.28,5.621-14.524,13.076-14.524s13.29,6.445,13.29,14.674h0Z"
       id="path65"
       style="fill:#ffffff" />
    <path
       class="st1"
       d="M315.541,61.722v-8.659h-6.307v39.41h6.307v-15.786c0-10.501,5.581-17.545,14.217-17.545h.835v-6.734l-.389-.017c-6.108-.262-11.484,3.196-14.663,9.331Z"
       id="path67"
       style="fill:#ffffff" />
    <path
       class="st1"
       d="M379.337,52.242c-5.456,0-9.694,2.379-12.935,7.268-2.419-4.694-6.615-7.268-11.89-7.268-5.924,0-9.273,3.205-11.506,6.381v-5.56h-6.307v39.41h6.307v-22.43c0-6.815,4.149-11.762,9.866-11.762,5.686,0,9.081,4.146,9.081,11.09v23.102h6.307v-22.654c0-3.515.994-6.473,2.873-8.555,1.737-1.924,4.169-2.983,6.849-2.983,5.816,0,9.152,4.097,9.152,11.239v22.953h6.307v-24.297c0-9.829-5.404-15.935-14.104-15.935h0Z"
       id="path69"
       style="fill:#ffffff" />
    <path
       class="st1"
       d="M462.711,58.953v-5.89h-11.845v-13.72l-6.307,3.679v10.041h-6.867v5.89h6.867v22.886c0,9.838,6.78,11.306,10.822,11.306,2.532,0,4.702-.538,6.828-1.692l.213-.115v-5.83l-.59.297c-1.833.924-3.33,1.3-5.167,1.3-3.902,0-5.799-1.967-5.799-6.013v-22.139h11.845Z"
       id="path71"
       style="fill:#ffffff" />
    <path
       class="st1"
       d="M515.083,81.792c-3.363,3.777-6.95,5.612-10.968,5.612-7.372,0-13.147-6.413-13.147-14.599v-.149c0-8.144,5.618-14.524,12.791-14.524,5.022,0,8.206,2.735,10.899,5.69l.302.332,4.184-4.637-.245-.273c-2.932-3.26-7.295-7.003-15.069-7.003-5.264,0-10.162,2.174-13.791,6.123-3.56,3.873-5.52,9.001-5.52,14.441v.149c0,5.403,1.961,10.496,5.521,14.34,3.628,3.917,8.526,6.075,13.79,6.075,7.838,0,12.327-4.066,15.361-7.608l.247-.288-4.071-4-.284.319h0Z"
       id="path73"
       style="fill:#ffffff" />
    <path
       class="st1"
       d="M417.43,52.242c-5.973,0-10.22,1.643-13.587,3.25l-.329.157,1.911,5.477.41-.197c3.028-1.453,6.46-2.797,11.024-2.797,6.777,0,10.65,3.107,10.65,10.289h-11.007c-10.278,0-16.172,4.482-16.172,12.298v.149c0,8.158,7.131,12.426,14.175,12.426,6.465,0,10.6-3.005,13.005-5.873l-.002,5.051h6.023v-23.998c0-4.963-1.31-9.149-3.894-11.852-2.778-2.907-6.885-4.381-12.207-4.381h0ZM427.51,73.49v4.392c0,5.726-5.131,10.045-11.935,10.045-6.092,0-8.867-3.775-8.867-7.283v-.149c0-3.195,1.798-7.005,10.365-7.005h10.437Z"
       id="path75"
       style="fill:#ffffff" />
    <path
       class="st1"
       d="M249.49,49.391c0-5.672,1.457-7.796,5.936-7.796,1.727,0,3.117.321,5.23.952l.39.117v-5.839l-.129-.049c-1.878-.707-3.675-.996-6.204-.996-3.425,0-6.264,1.075-8.209,3.11-2.173,2.273-3.321,5.801-3.321,10.202v3.971h-6.867v5.89h6.867v33.52h6.307v-33.52h11.845v-5.89h-11.845v-3.672h0Z"
       id="path77"
       style="fill:#ffffff" />
    <polygon
       class="st1"
       points="476.832 92.473 470.525 92.473 470.525 57.256 470.525 53.063 476.832 53.063 476.832 92.473"
       id="polygon79"
       style="fill:#ffffff" />
    <path
       class="st1"
       d="M540.428,52.242c-5.974,0-10.222,1.643-13.589,3.25l-.329.157,1.911,5.478.41-.197c3.029-1.453,6.461-2.797,11.025-2.797,6.778,0,10.652,3.107,10.652,10.291h-11.009c-10.279,0-16.175,4.483-16.175,12.299v.149c0,8.159,7.132,12.428,14.177,12.428,6.466,0,10.601-3.006,13.006-5.873l-.002,5.052h6.024v-24.001c0-4.964-1.31-9.15-3.894-11.854-2.778-2.908-6.886-4.382-12.209-4.382h.002ZM550.509,73.493v4.393c0,5.727-5.131,10.046-11.936,10.046-6.093,0-8.868-3.775-8.868-7.284v-.149c0-3.196,1.798-7.006,10.366-7.006h10.438,0Z"
       id="path81"
       style="fill:#ffffff" />
    <path
       class="st1"
       d="M558.85,56.576c0-.694.161-1.339.482-1.933s.766-1.063,1.335-1.405,1.183-.513,1.843-.513,1.273.171,1.84.513,1.011.81,1.333,1.405c.321.595.482,1.239.482,1.933,0,.677-.155,1.311-.464,1.902s-.748,1.066-1.317,1.425-1.193.539-1.874.539c-.677,0-1.3-.178-1.869-.534s-1.01-.829-1.322-1.42c-.313-.591-.469-1.229-.469-1.913h0ZM559.443,56.573c0,.591.137,1.138.412,1.641.275.503.649.897,1.121,1.182.473.285.984.427,1.534.427.553,0,1.067-.145,1.541-.435s.846-.684,1.116-1.182.405-1.042.405-1.633c0-.587-.135-1.129-.405-1.625s-.642-.888-1.116-1.174c-.474-.287-.988-.43-1.541-.43-.55,0-1.062.142-1.536.425-.474.284-.848.676-1.121,1.177s-.41,1.044-.41,1.628h0ZM561.752,56.962v1.742h-.727v-4.377h1.423c.526,0,.934.113,1.224.338s.436.552.436.982c0,.423-.22.746-.66.969.419.172.631.522.634,1.052v.314c0,.296.029.509.088.639v.082h-.747c-.048-.124-.072-.345-.072-.662s-.005-.506-.015-.564c-.055-.33-.28-.502-.675-.516h-.909ZM561.752,56.302h.804c.247-.007.447-.067.598-.18s.227-.262.227-.447c0-.25-.067-.427-.201-.531s-.373-.157-.717-.157h-.711v1.315h0Z"
       id="path83"
       style="fill:#ffffff" />
  </g>
  <g
     id="g353"
     transform="matrix(1.1628252,0,0,1.1628252,-90.777506,-25.806155)"
     style="fill:#ffffff">
    <g
       id="g349"
       style="fill:#ffffff">
      <path
         class="st1"
         d="m 318.99,120.618 -0.561,1.813 c -0.631,-0.14 -1.251,-0.199 -1.848,-0.175 -1.871,0.023 -2.795,1.041 -2.795,3.064 v 1.251 h 3.812 v 1.941 h -3.812 v 13.225 h -2.526 v -13.225 h -2.654 v -1.614 l 2.654,-0.327 v -1.31 c 0,-1.614 0.421,-2.842 1.286,-3.707 0.854,-0.865 2.128,-1.31 3.812,-1.321 0.971,0 1.859,0.129 2.654,0.386 h -0.023 0.001 z"
         id="path321"
         style="fill:#ffffff" />
      <path
         class="st1"
         d="m 320.359,129.973 c 0,-1.111 -0.07,-2.245 -0.21,-3.391 h 2.409 c 0.094,0.678 0.164,1.485 0.21,2.409 h 0.058 c 0.877,-1.883 2.467,-2.83 4.771,-2.83 0.164,0 0.444,0.035 0.865,0.094 l -0.152,2.175 c -0.199,-0.035 -0.503,-0.058 -0.924,-0.058 -1.45,0 -2.561,0.491 -3.333,1.462 -0.772,0.971 -1.158,2.233 -1.158,3.777 v 8.127 h -2.526 v -11.764 h -0.012 0.002 z"
         id="path323"
         style="fill:#ffffff" />
      <path
         class="st1"
         d="m 344.611,134.112 c 0,1.567 -0.304,2.958 -0.912,4.186 -0.608,1.216 -1.473,2.175 -2.619,2.842 -1.146,0.678 -2.502,1.017 -4.093,1.017 -1.591,0 -2.935,-0.339 -4.081,-1.029 -1.158,-0.69 -2.023,-1.637 -2.619,-2.842 -0.596,-1.216 -0.889,-2.596 -0.889,-4.175 0,-2.421 0.667,-4.35 2,-5.788 1.333,-1.438 3.192,-2.163 5.601,-2.163 1.602,0 2.982,0.327 4.128,0.994 1.146,0.667 2.011,1.59 2.608,2.783 0.597,1.193 0.889,2.584 0.889,4.175 z m -12.606,0 c 0,1.813 0.409,3.263 1.24,4.362 0.831,1.099 2.07,1.649 3.742,1.649 1.672,0 2.947,-0.55 3.777,-1.649 0.83,-1.099 1.251,-2.561 1.251,-4.362 0,-1.801 -0.421,-3.251 -1.251,-4.315 -0.83,-1.076 -2.093,-1.614 -3.777,-1.614 -1.684,0 -2.935,0.538 -3.754,1.614 -0.819,1.076 -1.216,2.514 -1.216,4.315 z"
         id="path325"
         style="fill:#ffffff" />
      <path
         class="st1"
         d="m 347.885,129.973 c 0,-1.111 -0.07,-2.245 -0.21,-3.391 h 2.409 c 0.094,0.538 0.164,1.251 0.21,2.14 h 0.058 c 0.479,-0.76 1.146,-1.368 2.011,-1.848 0.865,-0.48 1.859,-0.713 2.994,-0.713 1.286,0 2.339,0.269 3.157,0.819 0.818,0.55 1.415,1.298 1.789,2.245 h 0.058 c 0.515,-0.959 1.216,-1.707 2.117,-2.245 0.889,-0.55 1.965,-0.819 3.216,-0.819 1.251,0 2.292,0.269 3.122,0.819 0.83,0.55 1.45,1.263 1.848,2.14 0.398,0.889 0.596,1.848 0.596,2.9 v 9.706 h -2.526 v -9.355 c 0,-1.169 -0.281,-2.152 -0.854,-2.947 -0.561,-0.795 -1.473,-1.193 -2.725,-1.193 -0.912,0 -1.696,0.234 -2.35,0.713 -0.654,0.479 -1.158,1.111 -1.485,1.906 -0.339,0.795 -0.503,1.649 -0.503,2.561 v 8.314 h -2.526 v -9.413 c 0,-1.146 -0.292,-2.117 -0.865,-2.9 -0.573,-0.783 -1.485,-1.181 -2.713,-1.181 -1.31,0 -2.35,0.456 -3.122,1.38 -0.772,0.924 -1.158,2.058 -1.158,3.415 v 8.7 h -2.526 v -11.764 l -0.023,0.012 v 0 z"
         id="path327"
         style="fill:#ffffff" />
      <path
         class="st1"
         d="m 421.251,139.772 1.345,-1.672 c 0.854,0.678 1.742,1.158 2.654,1.462 0.912,0.292 1.941,0.444 3.099,0.444 1.427,0 2.584,-0.327 3.473,-0.994 0.889,-0.667 1.321,-1.637 1.321,-2.9 0,-0.889 -0.21,-1.614 -0.62,-2.175 -0.421,-0.561 -0.994,-1.006 -1.731,-1.345 -0.737,-0.339 -1.707,-0.667 -2.923,-0.982 -1.965,-0.515 -3.438,-1.216 -4.408,-2.105 -0.97,-0.889 -1.462,-2.117 -1.462,-3.707 0,-1.766 0.655,-3.146 1.976,-4.14 1.321,-0.994 3.005,-1.485 5.052,-1.485 1.286,0 2.456,0.164 3.496,0.503 1.04,0.339 2.011,0.83 2.9,1.485 l -1.193,1.731 c -0.83,-0.538 -1.661,-0.935 -2.491,-1.193 -0.819,-0.257 -1.731,-0.386 -2.725,-0.386 -1.333,0 -2.397,0.281 -3.216,0.854 -0.819,0.561 -1.216,1.38 -1.216,2.456 0,1.076 0.374,1.883 1.111,2.432 0.748,0.55 1.965,1.041 3.648,1.473 2.128,0.561 3.73,1.31 4.829,2.269 1.087,0.959 1.637,2.362 1.637,4.233 0,1.345 -0.327,2.491 -0.994,3.426 -0.667,0.935 -1.567,1.637 -2.69,2.105 -1.123,0.468 -2.397,0.702 -3.812,0.702 -2.736,0 -5.098,-0.819 -7.063,-2.467 v -0.023 h 0.003 z"
         id="path329"
         style="fill:#ffffff" />
      <path
         class="st1"
         d="m 438.078,137.597 c 0,-1.965 0.713,-3.333 2.128,-4.093 1.415,-0.76 3.555,-1.146 6.42,-1.146 0.69,0 1.216,0 1.579,0.035 v -0.865 c 0,-1.134 -0.304,-1.976 -0.924,-2.526 -0.62,-0.561 -1.555,-0.83 -2.83,-0.83 -1.614,0 -3.122,0.433 -4.56,1.286 l -0.889,-1.696 c 1.707,-1.052 3.578,-1.579 5.601,-1.579 2.128,0 3.683,0.491 4.666,1.485 0.983,0.994 1.473,2.502 1.473,4.525 v 6.198 c 0,1.087 0.07,2.21 0.21,3.368 h -2.327 c -0.14,-0.877 -0.21,-1.555 -0.21,-2.058 h -0.094 c -0.561,0.819 -1.251,1.427 -2.105,1.848 -0.842,0.421 -1.929,0.62 -3.263,0.62 -1.473,0 -2.654,-0.398 -3.543,-1.181 -0.889,-0.783 -1.345,-1.906 -1.345,-3.379 l 0.012,-0.012 z m 10.127,-1.462 v -1.965 l -1.345,-0.035 c -1.485,0 -2.678,0.105 -3.555,0.292 -0.889,0.199 -1.544,0.538 -1.965,1.017 -0.433,0.479 -0.643,1.146 -0.643,2 0,0.854 0.257,1.544 0.772,2.011 0.515,0.467 1.228,0.702 2.14,0.702 0.912,0 1.777,-0.199 2.467,-0.608 0.69,-0.409 1.216,-0.924 1.579,-1.532 0.362,-0.62 0.538,-1.24 0.538,-1.871 l 0.012,-0.012 v 0 z"
         id="path331"
         style="fill:#ffffff" />
      <path
         class="st1"
         d="m 458.027,120.653 v 21.084 h -2.526 v -21.084 z"
         id="path333"
         style="fill:#ffffff" />
      <path
         class="st1"
         d="m 475.72,135.059 h -11.261 c 0.094,1.544 0.561,2.783 1.403,3.695 0.83,0.912 2.023,1.368 3.578,1.368 0.912,0 1.731,-0.129 2.456,-0.374 0.725,-0.245 1.45,-0.62 2.187,-1.123 l 1.134,1.637 c -0.854,0.62 -1.766,1.087 -2.725,1.403 -0.959,0.316 -2.035,0.479 -3.204,0.479 -2.327,0 -4.14,-0.737 -5.438,-2.198 -1.298,-1.473 -1.953,-3.426 -1.953,-5.87 0,-1.567 0.281,-2.947 0.83,-4.14 0.561,-1.193 1.368,-2.117 2.432,-2.783 1.064,-0.667 2.339,-0.994 3.824,-0.994 2.198,0 3.882,0.713 5.052,2.14 1.158,1.427 1.742,3.321 1.742,5.695 0,0.479 -0.023,0.83 -0.058,1.076 v -0.012 0 z m -2.409,-1.964 c -0.035,-1.508 -0.433,-2.725 -1.158,-3.637 -0.737,-0.912 -1.801,-1.368 -3.192,-1.368 -1.391,0 -2.502,0.468 -3.274,1.415 -0.772,0.947 -1.193,2.14 -1.251,3.59 z"
         id="path335"
         style="fill:#ffffff" />
      <path
         class="st1"
         d="m 488.793,127.762 -1.134,1.579 c -1.169,-0.819 -2.444,-1.216 -3.812,-1.216 -0.959,0 -1.696,0.187 -2.233,0.55 -0.537,0.363 -0.807,0.889 -0.807,1.567 0,0.491 0.105,0.9 0.327,1.216 0.222,0.316 0.585,0.585 1.099,0.807 0.514,0.222 1.275,0.444 2.269,0.69 1.544,0.374 2.701,0.924 3.438,1.649 0.748,0.725 1.123,1.672 1.123,2.842 0,1.485 -0.561,2.643 -1.672,3.473 -1.111,0.819 -2.479,1.24 -4.104,1.24 -2.187,0 -4.011,-0.585 -5.484,-1.754 l 1.158,-1.579 c 0.678,0.456 1.345,0.795 2,1.017 0.655,0.222 1.403,0.327 2.233,0.327 1.017,0 1.812,-0.222 2.397,-0.655 0.585,-0.433 0.877,-1.064 0.877,-1.871 0,-0.538 -0.105,-0.971 -0.327,-1.298 -0.222,-0.327 -0.585,-0.596 -1.087,-0.819 -0.502,-0.223 -1.263,-0.456 -2.28,-0.713 -1.567,-0.398 -2.713,-0.935 -3.426,-1.614 -0.713,-0.679 -1.076,-1.614 -1.076,-2.795 0,-1.286 0.503,-2.315 1.508,-3.087 1.006,-0.76 2.327,-1.146 3.976,-1.146 1.941,0 3.625,0.538 5.028,1.614 l 0.012,-0.023 h -0.003 z"
         id="path337"
         style="fill:#ffffff" />
      <path
         class="st1"
         d="m 501.493,120.618 -0.561,1.813 c -0.631,-0.14 -1.251,-0.199 -1.848,-0.175 -1.871,0.023 -2.795,1.041 -2.795,3.064 v 1.251 h 3.812 v 1.941 h -3.812 v 13.225 h -2.526 v -13.225 h -2.654 v -1.614 l 2.654,-0.327 v -1.31 c 0,-1.614 0.421,-2.842 1.286,-3.707 0.854,-0.865 2.128,-1.31 3.812,-1.321 0.971,0 1.859,0.129 2.654,0.386 h -0.023 v 0 z"
         id="path339"
         style="fill:#ffffff" />
      <path
         class="st1"
         d="m 517.01,134.112 c 0,1.567 -0.304,2.958 -0.912,4.186 -0.608,1.216 -1.473,2.175 -2.619,2.842 -1.146,0.678 -2.502,1.017 -4.093,1.017 -1.591,0 -2.935,-0.339 -4.081,-1.029 -1.158,-0.69 -2.023,-1.637 -2.619,-2.842 -0.596,-1.216 -0.889,-2.596 -0.889,-4.175 0,-2.421 0.667,-4.35 2,-5.788 1.333,-1.438 3.192,-2.163 5.601,-2.163 1.602,0 2.982,0.327 4.128,0.994 1.146,0.667 2.011,1.59 2.608,2.783 0.596,1.193 0.889,2.584 0.889,4.175 z m -12.606,0 c 0,1.813 0.409,3.263 1.24,4.362 0.819,1.099 2.07,1.649 3.742,1.649 1.672,0 2.947,-0.55 3.777,-1.649 0.83,-1.099 1.251,-2.561 1.251,-4.362 0,-1.801 -0.421,-3.251 -1.251,-4.315 -0.83,-1.076 -2.093,-1.614 -3.777,-1.614 -1.684,0 -2.935,0.538 -3.754,1.614 -0.819,1.076 -1.216,2.514 -1.216,4.315 z"
         id="path341"
         style="fill:#ffffff" />
      <path
         class="st1"
         d="m 520.284,129.973 c 0,-1.111 -0.07,-2.245 -0.21,-3.391 h 2.409 c 0.094,0.678 0.164,1.485 0.21,2.409 h 0.058 c 0.877,-1.883 2.467,-2.83 4.771,-2.83 0.164,0 0.444,0.035 0.865,0.094 l -0.152,2.175 c -0.199,-0.035 -0.503,-0.058 -0.924,-0.058 -1.45,0 -2.561,0.491 -3.333,1.462 -0.772,0.971 -1.158,2.233 -1.158,3.777 v 8.127 h -2.526 v -11.764 h -0.012 0.002 z"
         id="path343"
         style="fill:#ffffff" />
      <path
         class="st1"
         d="m 536.807,126.16 c 0.959,0 1.859,0.14 2.725,0.433 0.866,0.293 1.637,0.69 2.304,1.204 l -1.017,1.754 c -1.158,-0.854 -2.491,-1.286 -4.023,-1.286 -1.625,0 -2.865,0.526 -3.695,1.59 -0.83,1.064 -1.251,2.491 -1.251,4.268 0,1.777 0.421,3.157 1.251,4.245 0.83,1.088 2.058,1.625 3.66,1.625 1.368,0 2.725,-0.433 4.081,-1.286 l 0.924,1.789 c -1.508,1.087 -3.239,1.637 -5.18,1.637 -1.707,0 -3.11,-0.386 -4.198,-1.146 -1.088,-0.76 -1.883,-1.754 -2.362,-2.958 -0.491,-1.216 -0.725,-2.514 -0.725,-3.906 0,-2.421 0.667,-4.362 2,-5.812 1.333,-1.45 3.169,-2.175 5.508,-2.175 v 0.023 h -0.002 z"
         id="path345"
         style="fill:#ffffff" />
      <path
         class="st1"
         d="m 557.458,135.059 h -11.261 c 0.094,1.544 0.561,2.783 1.403,3.695 0.83,0.912 2.023,1.368 3.578,1.368 0.912,0 1.731,-0.129 2.456,-0.374 0.725,-0.245 1.45,-0.62 2.187,-1.123 l 1.134,1.637 c -0.854,0.62 -1.766,1.087 -2.725,1.403 -0.959,0.316 -2.035,0.479 -3.204,0.479 -2.327,0 -4.14,-0.737 -5.438,-2.198 -1.298,-1.473 -1.953,-3.426 -1.953,-5.87 0,-1.567 0.281,-2.947 0.83,-4.14 0.561,-1.193 1.368,-2.117 2.432,-2.783 1.064,-0.667 2.339,-0.994 3.824,-0.994 2.198,0 3.882,0.713 5.052,2.14 1.158,1.427 1.742,3.321 1.742,5.695 0,0.479 -0.023,0.83 -0.058,1.076 v -0.012 0 z m -2.42,-1.964 c -0.035,-1.508 -0.433,-2.725 -1.158,-3.637 -0.737,-0.912 -1.801,-1.368 -3.192,-1.368 -1.391,0 -2.502,0.468 -3.274,1.415 -0.772,0.947 -1.193,2.14 -1.251,3.59 z"
         id="path347"
         style="fill:#ffffff" />
    </g>
    <path
       class="st5"
       d="m 394.087,122.793 c 0.608,-0.643 1.333,-1.146 2.14,-1.497 0.807,-0.351 1.672,-0.538 2.549,-0.538 1.169,0 2.315,0.327 3.321,0.924 1.006,0.608 1.824,1.473 2.386,2.502 1.029,-0.456 2.14,-0.702 3.263,-0.702 2.14,0 4.198,0.865 5.706,2.397 1.52,1.532 2.362,3.613 2.362,5.777 0,2.164 -0.854,4.245 -2.362,5.777 -1.52,1.532 -3.567,2.397 -5.706,2.397 -0.526,0 -1.052,-0.058 -1.567,-0.187 -0.725,1.321 -1.918,2.304 -3.344,2.76 -1.427,0.433 -2.97,0.327 -4.327,-0.316 -0.515,1.251 -1.403,2.315 -2.549,3.029 -1.123,0.737 -2.456,1.123 -3.8,1.087 -1.333,-0.012 -2.631,-0.444 -3.707,-1.24 -1.087,-0.783 -1.918,-1.883 -2.374,-3.157 -0.421,0.094 -0.854,0.14 -1.298,0.129 -1.087,-0.023 -2.163,-0.327 -3.099,-0.889 -0.935,-0.561 -1.719,-1.368 -2.257,-2.327 -0.538,-0.959 -0.83,-2.046 -0.83,-3.146 0,-1.1 0.281,-2.187 0.819,-3.157 0.55,-0.959 1.333,-1.754 2.28,-2.304 -0.702,-1.625 -0.772,-3.461 -0.222,-5.145 0.561,-1.672 1.696,-3.099 3.192,-3.999 1.52,-0.912 3.309,-1.216 5.04,-0.854 1.742,0.304 3.298,1.251 4.373,2.666 l 0.012,0.012 h -0.001 z"
       id="path351"
       style="fill:#ffffff" />
  </g>
</svg>
