<?xml version="1.0" encoding="UTF-8" standalone="no"?>
<!-- Generator: Adobe Illustrator 27.0.1, SVG Export Plug-In . SVG Version: 6.00 Build 0)  -->

<svg
   version="1.1"
   id="Isolation_Mode"
   x="0px"
   y="0px"
   viewBox="0 0 469 159.5"
   style="enable-background:new 0 0 469 159.5;"
   xml:space="preserve"
   sodipodi:docname="mulesoft.svg"
   inkscape:version="1.2.2 (b0a84865, 2022-12-01)"
   xmlns:inkscape="http://www.inkscape.org/namespaces/inkscape"
   xmlns:sodipodi="http://sodipodi.sourceforge.net/DTD/sodipodi-0.dtd"
   xmlns="http://www.w3.org/2000/svg"
   xmlns:svg="http://www.w3.org/2000/svg"><defs
   id="defs74" /><sodipodi:namedview
   id="namedview72"
   pagecolor="#ffffff"
   bordercolor="#000000"
   borderopacity="0.25"
   inkscape:showpageshadow="2"
   inkscape:pageopacity="0.0"
   inkscape:pagecheckerboard="0"
   inkscape:deskcolor="#d1d1d1"
   showgrid="false"
   inkscape:zoom="1.4796238"
   inkscape:cx="235.19492"
   inkscape:cy="79.750001"
   inkscape:window-width="1309"
   inkscape:window-height="456"
   inkscape:window-x="0"
   inkscape:window-y="30"
   inkscape:window-maximized="0"
   inkscape:current-layer="Isolation_Mode" />
<style
   type="text/css"
   id="style9">
	.st0{fill:#032D60;}
	.st1{fill:#0D9DDA;}
</style>
<g
   id="g69"
   style="fill:#ffffff">
	<g
   id="g47"
   style="fill:#ffffff">
		<g
   id="g41"
   style="fill:#ffffff"
   transform="matrix(0.82683342,0,0,0.82683342,83.17054,11.550298)">
			<path
   class="st0"
   d="m 163,125.4 -0.7,2.2 c -0.8,-0.2 -1.5,-0.2 -2.3,-0.2 -2.3,0 -3.4,1.3 -3.4,3.8 v 1.5 h 4.7 v 2.4 h -4.7 v 16.3 h -3.1 v -16.3 h -3.3 v -2 l 3.3,-0.4 v -1.6 c 0,-2 0.5,-3.5 1.6,-4.6 1.1,-1.1 2.6,-1.6 4.7,-1.6 1.2,0 2.3,0.2 3.2,0.5 z"
   id="path11"
   style="fill:#ffffff" />
			<path
   class="st0"
   d="m 164.7,136.9 c 0,-1.4 -0.1,-2.8 -0.3,-4.2 h 3 c 0.1,0.8 0.2,1.8 0.3,3 h 0.1 c 1.1,-2.3 3,-3.5 5.9,-3.5 0.2,0 0.6,0 1.1,0.1 l -0.2,2.7 c -0.2,0 -0.6,-0.1 -1.1,-0.1 -1.8,0 -3.2,0.6 -4.1,1.8 -1,1.2 -1.4,2.8 -1.4,4.7 v 10 h -3.1 v -14.5 z"
   id="path13"
   style="fill:#ffffff" />
			<path
   class="st0"
   d="m 194.6,142 c 0,1.9 -0.4,3.7 -1.1,5.2 -0.7,1.5 -1.8,2.7 -3.2,3.5 -1.4,0.8 -3.1,1.2 -5,1.2 -1.9,0 -3.6,-0.4 -5,-1.3 -1.4,-0.8 -2.5,-2 -3.2,-3.5 -0.7,-1.5 -1.1,-3.2 -1.1,-5.1 0,-3 0.8,-5.4 2.5,-7.1 1.6,-1.8 3.9,-2.7 6.9,-2.7 2,0 3.7,0.4 5.1,1.2 1.4,0.8 2.5,2 3.2,3.4 0.5,1.5 0.9,3.3 0.9,5.2 z m -15.5,0 c 0,2.2 0.5,4 1.5,5.4 1,1.4 2.6,2 4.6,2 2.1,0 3.6,-0.7 4.7,-2 1,-1.4 1.5,-3.1 1.5,-5.4 0,-2.2 -0.5,-4 -1.5,-5.3 -1,-1.3 -2.6,-2 -4.7,-2 -2.1,0 -3.6,0.7 -4.6,2 -1,1.3 -1.5,3.1 -1.5,5.3 z"
   id="path15"
   style="fill:#ffffff" />
			<path
   class="st0"
   d="m 198.6,136.9 c 0,-1.4 -0.1,-2.8 -0.3,-4.2 h 3 c 0.1,0.7 0.2,1.5 0.3,2.6 h 0.1 c 0.6,-0.9 1.4,-1.7 2.5,-2.3 1.1,-0.6 2.3,-0.9 3.7,-0.9 1.6,0 2.9,0.3 3.9,1 1,0.7 1.7,1.6 2.2,2.8 h 0.1 c 0.6,-1.2 1.5,-2.1 2.6,-2.8 1.1,-0.7 2.4,-1 4,-1 1.5,0 2.8,0.3 3.9,1 1,0.7 1.8,1.6 2.3,2.6 0.5,1.1 0.7,2.3 0.7,3.6 v 12 h -3.1 v -11.5 c 0,-1.4 -0.3,-2.7 -1,-3.6 -0.7,-1 -1.8,-1.5 -3.4,-1.5 -1.1,0 -2.1,0.3 -2.9,0.9 -0.8,0.6 -1.4,1.4 -1.8,2.3 -0.4,1 -0.6,2 -0.6,3.2 v 10.2 h -3.1 v -11.6 c 0,-1.4 -0.4,-2.6 -1.1,-3.6 -0.7,-1 -1.8,-1.4 -3.3,-1.4 -1.6,0 -2.9,0.6 -3.9,1.7 -1,1.1 -1.4,2.5 -1.4,4.2 v 10.7 h -3.1 v -14.4 z"
   id="path17"
   style="fill:#ffffff" />
			<path
   class="st0"
   d="m 289,149 1.7,-2.1 c 1.1,0.8 2.1,1.4 3.3,1.8 1.1,0.4 2.4,0.6 3.8,0.6 1.8,0 3.2,-0.4 4.3,-1.2 1.1,-0.8 1.6,-2 1.6,-3.6 0,-1.1 -0.3,-2 -0.8,-2.7 -0.5,-0.7 -1.2,-1.2 -2.1,-1.7 -0.9,-0.4 -2.1,-0.8 -3.6,-1.2 -2.4,-0.6 -4.2,-1.5 -5.4,-2.6 -1.2,-1.1 -1.8,-2.6 -1.8,-4.6 0,-2.2 0.8,-3.9 2.4,-5.1 1.6,-1.2 3.7,-1.8 6.2,-1.8 1.6,0 3,0.2 4.3,0.6 1.3,0.4 2.5,1 3.6,1.8 l -1.5,2.1 c -1,-0.7 -2,-1.1 -3.1,-1.5 -1,-0.3 -2.1,-0.5 -3.4,-0.5 -1.6,0 -3,0.3 -4,1 -1,0.7 -1.5,1.7 -1.5,3 0,1.3 0.5,2.3 1.4,3 0.9,0.7 2.4,1.3 4.5,1.8 2.6,0.7 4.6,1.6 5.9,2.8 1.3,1.2 2,2.9 2,5.2 0,1.7 -0.4,3.1 -1.2,4.2 -0.8,1.1 -1.9,2 -3.3,2.6 -1.4,0.6 -3,0.9 -4.7,0.9 -3.3,0.2 -6.2,-0.8 -8.6,-2.8 z"
   id="path19"
   style="fill:#ffffff" />
			<path
   class="st0"
   d="m 309.8,146.3 c 0,-2.4 0.9,-4.1 2.6,-5 1.7,-0.9 4.4,-1.4 7.9,-1.4 0.9,0 1.5,0 1.9,0 v -1.1 c 0,-1.4 -0.4,-2.4 -1.1,-3.1 -0.8,-0.7 -1.9,-1 -3.5,-1 -2,0 -3.9,0.5 -5.6,1.6 l -1.1,-2.1 c 2.1,-1.3 4.4,-1.9 6.9,-1.9 2.6,0 4.5,0.6 5.7,1.8 1.2,1.2 1.8,3.1 1.8,5.6 v 7.6 c 0,1.3 0.1,2.7 0.3,4.1 h -2.9 c -0.2,-1.1 -0.3,-1.9 -0.3,-2.5 h -0.1 c -0.7,1 -1.5,1.8 -2.6,2.3 -1,0.5 -2.4,0.8 -4,0.8 -1.8,0 -3.3,-0.5 -4.4,-1.4 -1,-1.1 -1.5,-2.5 -1.5,-4.3 z m 12.4,-1.8 v -2.4 h -1.7 c -1.8,0 -3.3,0.1 -4.4,0.4 -1.1,0.2 -1.9,0.7 -2.4,1.2 -0.5,0.6 -0.8,1.4 -0.8,2.5 0,1.1 0.3,1.9 1,2.5 0.6,0.6 1.5,0.9 2.6,0.9 1.2,0 2.2,-0.3 3,-0.8 0.9,-0.5 1.5,-1.1 1.9,-1.9 0.6,-0.8 0.8,-1.6 0.8,-2.4 z"
   id="path21"
   style="fill:#ffffff" />
			<path
   class="st0"
   d="m 334.3,125.4 v 26 h -3.1 v -26 z"
   id="path23"
   style="fill:#ffffff" />
			<path
   class="st0"
   d="m 356.1,143.2 h -13.9 c 0.1,1.9 0.7,3.4 1.7,4.6 1,1.1 2.5,1.7 4.4,1.7 1.1,0 2.1,-0.2 3,-0.5 0.9,-0.3 1.8,-0.8 2.7,-1.4 l 1.4,2 c -1.1,0.8 -2.2,1.3 -3.4,1.7 -1.2,0.4 -2.5,0.6 -3.9,0.6 -2.9,0 -5.1,-0.9 -6.7,-2.7 -1.6,-1.8 -2.4,-4.2 -2.4,-7.2 0,-1.9 0.3,-3.6 1,-5.1 0.7,-1.5 1.7,-2.6 3,-3.4 1.3,-0.8 2.9,-1.2 4.7,-1.2 2.7,0 4.8,0.9 6.2,2.6 1.4,1.8 2.1,4.1 2.1,7 0.2,0.6 0.2,1 0.1,1.3 z m -2.9,-2.4 c 0,-1.9 -0.5,-3.4 -1.4,-4.5 -0.9,-1.1 -2.2,-1.7 -3.9,-1.7 -1.7,0 -3.1,0.6 -4,1.7 -1,1.2 -1.5,2.6 -1.5,4.4 h 10.8 z"
   id="path25"
   style="fill:#ffffff" />
			<path
   class="st0"
   d="m 372.2,134.2 -1.4,1.9 c -1.4,-1 -3,-1.5 -4.7,-1.5 -1.2,0 -2.1,0.2 -2.8,0.7 -0.7,0.5 -1,1.1 -1,1.9 0,0.6 0.1,1.1 0.4,1.5 0.3,0.4 0.7,0.7 1.4,1 0.6,0.3 1.6,0.6 2.8,0.8 1.9,0.5 3.3,1.1 4.2,2 0.9,0.9 1.4,2.1 1.4,3.5 0,1.8 -0.7,3.3 -2.1,4.3 -1.4,1 -3.1,1.5 -5.1,1.5 -2.7,0 -4.9,-0.7 -6.8,-2.2 l 1.4,-1.9 c 0.8,0.6 1.7,1 2.5,1.2 0.8,0.3 1.7,0.4 2.8,0.4 1.2,0 2.2,-0.3 3,-0.8 0.7,-0.5 1.1,-1.3 1.1,-2.3 0,-0.7 -0.1,-1.2 -0.4,-1.6 -0.3,-0.4 -0.7,-0.7 -1.3,-1 -0.6,-0.3 -1.6,-0.6 -2.8,-0.9 -1.9,-0.5 -3.3,-1.1 -4.2,-2 -0.9,-0.8 -1.3,-2 -1.3,-3.4 0,-1.6 0.6,-2.9 1.9,-3.8 1.2,-0.9 2.9,-1.4 4.9,-1.4 2.3,0.1 4.4,0.8 6.1,2.1 z"
   id="path27"
   style="fill:#ffffff" />
			<path
   class="st0"
   d="m 387.9,125.4 -0.7,2.2 c -0.8,-0.2 -1.5,-0.2 -2.3,-0.2 -2.3,0 -3.4,1.3 -3.4,3.8 v 1.5 h 4.7 v 2.4 h -4.7 v 16.3 h -3.1 v -16.3 h -3.3 v -2 l 3.3,-0.4 v -1.6 c 0,-2 0.5,-3.5 1.6,-4.6 1.1,-1.1 2.6,-1.6 4.7,-1.6 1.1,0 2.2,0.2 3.2,0.5 z"
   id="path29"
   style="fill:#ffffff" />
			<path
   class="st0"
   d="m 407,142 c 0,1.9 -0.4,3.7 -1.1,5.2 -0.7,1.5 -1.8,2.7 -3.2,3.5 -1.4,0.8 -3.1,1.2 -5,1.2 -1.9,0 -3.6,-0.4 -5,-1.3 -1.4,-0.8 -2.5,-2 -3.2,-3.5 -0.7,-1.5 -1.1,-3.2 -1.1,-5.1 0,-3 0.8,-5.4 2.5,-7.1 1.6,-1.8 3.9,-2.7 6.9,-2.7 2,0 3.7,0.4 5.1,1.2 1.4,0.8 2.5,2 3.2,3.4 0.5,1.5 0.9,3.3 0.9,5.2 z m -15.5,0 c 0,2.2 0.5,4 1.5,5.4 1,1.4 2.6,2 4.6,2 2.1,0 3.6,-0.7 4.7,-2 1,-1.4 1.5,-3.1 1.5,-5.4 0,-2.2 -0.5,-4 -1.5,-5.3 -1,-1.3 -2.6,-2 -4.7,-2 -2.1,0 -3.6,0.7 -4.6,2 -1,1.3 -1.5,3.1 -1.5,5.3 z"
   id="path31"
   style="fill:#ffffff" />
			<path
   class="st0"
   d="m 411,136.9 c 0,-1.4 -0.1,-2.8 -0.3,-4.2 h 3 c 0.1,0.8 0.2,1.8 0.3,3 h 0.1 c 1.1,-2.3 3,-3.5 5.9,-3.5 0.2,0 0.6,0 1.1,0.1 l -0.2,2.7 c -0.2,0 -0.6,-0.1 -1.1,-0.1 -1.8,0 -3.2,0.6 -4.1,1.8 -1,1.2 -1.4,2.8 -1.4,4.7 v 10 H 411 Z"
   id="path33"
   style="fill:#ffffff" />
			<path
   class="st0"
   d="m 431.4,132.2 c 1.2,0 2.3,0.2 3.4,0.5 1.1,0.4 2,0.9 2.8,1.5 l -1.2,2.2 c -1.4,-1.1 -3.1,-1.6 -5,-1.6 -2,0 -3.5,0.7 -4.6,2 -1,1.3 -1.5,3.1 -1.5,5.3 0,2.2 0.5,3.9 1.5,5.2 1,1.3 2.5,2 4.5,2 1.7,0 3.4,-0.5 5,-1.6 l 1.1,2.2 c -1.9,1.3 -4,2 -6.4,2 -2.1,0 -3.8,-0.5 -5.2,-1.4 -1.3,-0.9 -2.3,-2.2 -2.9,-3.7 -0.6,-1.5 -0.9,-3.1 -0.9,-4.8 0,-3 0.8,-5.4 2.5,-7.2 1.7,-1.7 4,-2.6 6.9,-2.6 z"
   id="path35"
   style="fill:#ffffff" />
			<path
   class="st0"
   d="M 456.8,143.2 H 443 c 0.1,1.9 0.7,3.4 1.7,4.6 1,1.1 2.5,1.7 4.4,1.7 1.1,0 2.1,-0.2 3,-0.5 0.9,-0.3 1.8,-0.8 2.7,-1.4 l 1.4,2 c -1.1,0.8 -2.2,1.3 -3.4,1.7 -1.2,0.4 -2.5,0.6 -3.9,0.6 -2.9,0 -5.1,-0.9 -6.7,-2.7 -1.6,-1.8 -2.4,-4.2 -2.4,-7.2 0,-1.9 0.3,-3.6 1,-5.1 0.7,-1.5 1.7,-2.6 3,-3.4 1.3,-0.8 2.9,-1.2 4.7,-1.2 2.7,0 4.8,0.9 6.2,2.6 1.4,1.8 2.1,4.1 2.1,7 0.1,0.6 0.1,1 0,1.3 z m -3,-2.4 c 0,-1.9 -0.5,-3.4 -1.4,-4.5 -0.9,-1.1 -2.2,-1.7 -3.9,-1.7 -1.7,0 -3.1,0.6 -4,1.7 -1,1.2 -1.5,2.6 -1.5,4.4 h 10.8 z"
   id="path37"
   style="fill:#ffffff" />
			<path
   class="st1"
   d="m 256.3,128.1 c 0.7,-0.8 1.6,-1.4 2.6,-1.8 1,-0.4 2.1,-0.7 3.1,-0.7 1.4,0 2.8,0.4 4.1,1.1 1.2,0.7 2.3,1.8 2.9,3.1 1.3,-0.6 2.6,-0.9 4,-0.9 2.6,0 5.2,1.1 7,2.9 1.9,1.9 2.9,4.4 2.9,7.1 0,2.7 -1,5.2 -2.9,7.1 -1.9,1.9 -4.4,2.9 -7,2.9 -0.6,0 -1.3,-0.1 -1.9,-0.2 -0.9,1.6 -2.4,2.8 -4.1,3.4 -1.8,0.5 -3.7,0.4 -5.3,-0.4 -0.6,1.5 -1.7,2.8 -3.1,3.7 -1.4,0.9 -3,1.4 -4.7,1.3 -1.6,0 -3.2,-0.5 -4.6,-1.5 -1.3,-1 -2.4,-2.3 -2.9,-3.9 -0.5,0.1 -1.1,0.2 -1.6,0.2 -1.3,0 -2.7,-0.4 -3.8,-1.1 -1.2,-0.7 -2.1,-1.7 -2.8,-2.9 -0.7,-1.2 -1,-2.5 -1,-3.9 0,-1.4 0.3,-2.7 1,-3.9 0.7,-1.2 1.6,-2.2 2.8,-2.8 -0.9,-2 -1,-4.3 -0.3,-6.3 0.7,-2.1 2.1,-3.8 3.9,-4.9 1.9,-1.1 4.1,-1.5 6.2,-1.1 2.2,0.6 4.2,1.7 5.5,3.5 z"
   id="path39"
   style="fill:#ffffff" />
		</g>
		<g
   id="g45"
   style="fill:#ffffff">
			<path
   id="path8_00000008840420706997268020000009501336767485704325_"
   class="st1"
   d="M62.1,118.3c-30.7,0-55.6-24.9-55.6-55.6     S31.4,7.2,62.1,7.2s55.6,24.9,55.6,55.6S92.8,118.3,62.1,118.3z M62.1,1.7c-33.6,0-61,27.1-61,60.7s27.4,60.7,61,60.7     s61-27.1,61-60.7S95.8,1.7,62.1,1.7z"
   style="fill:#ffffff" />
			<path
   id="path12_00000179605317542179815400000009272641675082613432_"
   class="st1"
   d="M46.4,89.8c-9.1-4.4-15.7-14.3-15.7-25.2     c0-5.8,1.8-11.3,4.8-16.1l20.1,30h12.1l20.1-30c2.9,4.4,4.8,10.2,4.8,16.1c0,10.6-5.5,19.7-13.9,24.5l4,14.6     c14.6-7.7,24.9-23,24.9-40.6c0-16.8-9.1-31.4-22.3-39.1L61.8,59.8l-23-36.2c-13.5,8-22.7,22.7-22.7,39.5     c0,18.3,10.6,34,26.3,41.3L46.4,89.8z"
   style="fill:#ffffff" />
		</g>
	</g>
	<polygon
   class="st1"
   points="177.8,68.9 159.9,30.9 150.6,30.9 150.6,92 159.9,92 159.9,51.2 174.3,81 181.2,81 195.3,51.2    195.3,92 204.6,92 204.6,30.9 195.3,30.9  "
   id="polygon49"
   style="fill:#ffffff" />
	<path
   class="st1"
   d="M239.4,75c0,6.7-4.2,9.7-9,9.7c-4.8,0-8.8-2.9-8.8-9.7V48.5h-8.8v27.8c0,4.9,1,9,4.4,12.3   c2.6,2.5,6.3,3.9,10.7,3.9c4.4,0.1,8.6-1.7,11.6-4.9V92h8.6V48.5h-8.8V75z"
   id="path51"
   style="fill:#ffffff" />
	<path
   class="st1"
   d="M265.3,79.5V30.9h-8.8V80c0,6.4,3.6,12,11.9,12h5.4v-7.5H270C266.5,84.6,265.3,82.9,265.3,79.5z"
   id="path53"
   style="fill:#ffffff" />
	<path
   class="st1"
   d="M294.9,48c-11.2,0-18.5,8.2-18.5,22.2c0,16.6,8.7,22.3,19.6,22.3c7.6,0,11.8-2.3,16.3-6.8l-5.6-5.2   c-3.1,3.1-5.7,4.5-10.6,4.5c-7.1,0-11.1-4.7-11.1-12.2h28.2v-3.9C313.4,56.6,306.6,48,294.9,48z M285.2,66.7   c0.1-2.7,0.3-3.9,1.1-5.9c1.5-3.4,4.9-5.6,8.7-5.5c3.7-0.1,7.1,2.1,8.6,5.5c0.8,1.9,1.2,3.9,1.2,5.9H285.2z"
   id="path55"
   style="fill:#ffffff" />
	<path
   class="st1"
   d="M356.6,62.1c-2.6-2.3-5.7-3.7-11.4-4.5l-6.9-1c-2.5-0.3-4.9-1.3-6.9-2.8c-1.6-1.5-2.4-3.5-2.3-5.7   c0-5.4,3.9-9.5,11.2-9.5c5.1,0,9.5,1.1,13.3,4.7l5.9-5.8c-5.2-4.9-10.9-6.9-19-6.9c-12.7,0-20.4,7.3-20.4,17.9   c0,5,1.5,8.8,4.5,11.7c2.7,2.5,6.6,4.2,11.6,4.9l7.2,1c3.6,0.5,5.2,1.1,6.7,2.6c1.5,1.5,2.4,3.7,2.4,6.4c0,5.9-4.6,9.3-12.6,9.3   c-6.3,0-11.2-1.4-15.6-5.8l-6.2,6.1c5.8,5.9,12.5,8.1,21.6,8.1c12.8,0,22-6.7,22-17.9C361.6,69.4,360,65,356.6,62.1z"
   id="path57"
   style="fill:#ffffff" />
	<path
   class="st1"
   d="M384.7,48c-5.9,0-10.1,2.2-13,5.2c-4.1,4.3-5.2,9.8-5.2,17.1c0,7.3,1,12.9,5.2,17.2c2.8,2.9,7,5.2,13,5.2   c5.9,0,10.2-2.2,13.1-5.2c4.1-4.3,5.2-9.8,5.2-17.2s-1-12.8-5.2-17.1C394.9,50.2,390.6,48,384.7,48z M391.2,82.2   c-1.7,1.7-4,2.6-6.4,2.6c-2.4,0-4.7-0.9-6.3-2.6c-2.7-2.7-3-7.2-3-11.9c0-4.7,0.3-9.3,3-11.9c1.7-1.7,4-2.6,6.3-2.5   c2.4-0.1,4.7,0.8,6.4,2.5c2.7,2.7,3,7.2,3,11.9C394.2,75,393.8,79.5,391.2,82.2L391.2,82.2z"
   id="path59"
   style="fill:#ffffff" />
	<path
   class="st1"
   d="M411.8,42.6v6.7h-5V56h5v36.1h8.8V56h8.7v-6.7h-8.7v-6.2c0-3.2,1.5-5.1,4.8-5.1h3.9v-7.5h-5.5   C415.5,30.5,411.8,36.3,411.8,42.6z"
   id="path61"
   style="fill:#ffffff" />
	<path
   class="st1"
   d="M448.3,36.1h-8.7v13.2h-5V56h5v24c0,6.3,3.8,12.1,11.9,12.1h5.2v-7.5h-3.6c-3.3,0-4.8-1.9-4.8-5.1V56h8.4v-6.7   h-8.4V36.1z"
   id="path63"
   style="fill:#ffffff" />
	<path
   class="st1"
   d="M467.6,42.8c-0.2-0.6-0.6-1.1-1-1.5c-0.4-0.4-0.9-0.8-1.5-1c-0.6-0.2-1.2-0.4-1.8-0.4c-0.6,0-1.2,0.1-1.8,0.4   c-0.6,0.2-1.1,0.6-1.5,1c-0.4,0.4-0.8,0.9-1,1.5c-0.3,0.6-0.4,1.2-0.4,1.8c0,1.9,1.1,3.6,2.9,4.4c0.6,0.2,1.2,0.4,1.8,0.4   c1.2,0,2.4-0.5,3.3-1.3c0.4-0.4,0.8-0.9,1-1.5c0.3-0.6,0.4-1.2,0.4-1.9C468,44,467.9,43.4,467.6,42.8z M466.8,46.3   c-0.4,0.9-1.1,1.7-2,2.1c-0.5,0.2-1,0.3-1.5,0.3c-0.5,0-1.1-0.1-1.5-0.3c-0.5-0.2-0.9-0.5-1.2-0.9c-0.4-0.4-0.6-0.8-0.8-1.3   c-0.2-0.5-0.3-1.1-0.3-1.6c0-0.5,0.1-1.1,0.3-1.6c0.2-0.5,0.5-0.9,0.8-1.3c0.7-0.7,1.7-1.2,2.8-1.1c0.5,0,1,0.1,1.5,0.3   c0.5,0.2,0.9,0.5,1.2,0.8c0.4,0.4,0.6,0.8,0.8,1.2c0.2,0.5,0.3,1,0.3,1.6C467.1,45.2,467,45.7,466.8,46.3L466.8,46.3z"
   id="path65"
   style="fill:#ffffff" />
	<path
   class="st1"
   d="M465.1,44.6c0.3-0.3,0.5-0.7,0.4-1.1c0-0.4-0.1-0.9-0.5-1.2c-0.4-0.3-0.9-0.4-1.5-0.4h-2.1v5.5h0.8V45h0.9   l1.5,2.4h0.9L464,45C464.4,45,464.8,44.8,465.1,44.6z M463.2,44.4h-0.9v-1.7h1.1c0.1,0,0.3,0,0.4,0c0.1,0,0.3,0.1,0.4,0.1   c0.1,0.1,0.2,0.1,0.3,0.2c0.1,0.1,0.1,0.3,0.1,0.4c0,0.2,0,0.4-0.1,0.5c-0.1,0.1-0.2,0.2-0.3,0.3c-0.1,0.1-0.3,0.1-0.5,0.1   C463.6,44.4,463.4,44.4,463.2,44.4z"
   id="path67"
   style="fill:#ffffff" />
</g>
</svg>
